{"title":"Three of Hearts (1993) Sherilyn Fenn [Lesbian comedy](DVDrip)","uid":4398829,"size":727382792,"categoryP":"video","categoryS":"movies","magnet":"?xt=urn:btih:6e740d1a998fb9f79bcc356e3bdcb7925c987628&amp;dn=Three+of+Hearts+%281993%29+Sherilyn+Fenn+%5BLesbian+comedy%5D%28DVDrip%29&amp;tr=udp%3A%2F%2Ftracker.openbittorrent.com%3A80&amp;tr=udp%3A%2F%2Fopen.demonii.com%3A1337&amp;tr=udp%3A%2F%2Ftracker.coppersurfer.tk%3A6969&amp;tr=udp%3A%2F%2Fexodus.desync.com%3A6969","seeders":1,"leechers":2,"uploader":"Kuthumi","files":-1,"time":1221579432,"description":" &lt;a href=&quot;http://www.imdb.com/title/tt0108334/&quot; rel=&quot;nofollow&quot; target=&quot;_NEW&quot;&gt;http://www.imdb.com/title/tt0108334/&lt;/a&gt;\n\nOptional English subtitles in separate idx/sub files.\n\nWith William Baldwin and Kelly Lynch.\n\nCute romantic comedy with Sherilyn Fenn (then 29) as a lesbian teacher who is seduced by a male escort (Baldwin) hired by her former female lover (Lynch). My friend seriously considered being a male escort after seeing this film.\n\nI could not find a torrent with proper widescreen for this film anywhere, so I made a new quality rip.\n\nWidescreen. 2-pass, great stereo AC3.\nBurn tested, runs well in both my standalone DivX players.\n\nFormat/Info                      : Audio Video Interleave\nFile size                        : 693 MiB\nDuration                         : 1h 44mn\nOveral bit rate                  : 930 Kbps\n\nVideo\nFormat                           : MPEG-4 Visual\nFormat profile                   : Streaming Video@L1\nFormat settings, BVOP            : Yes\nFormat settings, QPel            : No\nFormat settings, GMC             : No warppoints\nFormat settings, Matrix          : Default\nMuxing mode                      : Packet Bitstream\nCodec ID                         : XVID\nCodec ID/Hint                    : XviD\nDuration                         : 1h 44mn\nBit rate                         : 793 Kbps\nWidth                            : 704 pixels\nHeight                           : 384 pixels\nDisplay aspect ratio             : 16/9\nFrame rate                       : 23.976 fps\nResolution                       : 8 bits\nColorimetry                      : 4:2:0\nScan type                        : Progressive\nBits/(Pixel*Frame)               : 0.122\nStream size                      : 590 MiB\nWriting library                  : XviD 1.2.0.dev47 (UTC 2006-11-01)\n\nAudio\nFormat                           : MPEG Audio\nFormat version                   : Version 1\nFormat profile                   : Layer 3\nCodec ID                         : 55\nCodec ID/Hint                    : MP3\nDuration                         : 1h 44mn\nBit rate mode                    : Constant\nBit rate                         : 128 Kbps\nMinimum bit rate                 : 128 Kbps\nChannel(s)                       : 2 channels\nSampling rate                    : 48.0 KHz\nResolution                       : 16 bits\nStream size                      : 95.3 MiB\nWriting library                  : LAME3.97 \nEncoding settings                : CBR\n\nSource: Retail NTSC IVTC 7.7 GiB (note that PAL/NTSC will give no problems for avi files).","torrent":{"xt":"urn:btih:6e740d1a998fb9f79bcc356e3bdcb7925c987628","amp;dn":"Three+of+Hearts+%281993%29+Sherilyn+Fenn+%5BLesbian+comedy%5D%28DVDrip%29","amp;tr":["udp%3A%2F%2Ftracker.openbittorrent.com%3A80","udp%3A%2F%2Fopen.demonii.com%3A1337","udp%3A%2F%2Ftracker.coppersurfer.tk%3A6969","udp%3A%2F%2Fexodus.desync.com%3A6969"],"infoHash":"6e740d1a998fb9f79bcc356e3bdcb7925c987628","infoHashBuffer":{"type":"Buffer","data":[110,116,13,26,153,143,185,247,155,204,53,110,59,220,183,146,92,152,118,40]},"announce":[],"urlList":[]}}